# xmcd CD database file
#
# Track frame offsets:
#	183
#	32570
#	50800
#	91723
#	117183
#	149908
#	174343
#	191883
#	223723
#	248273
#	280610
#	321730
#
# Disc length: 4565 seconds
#
# Revision: 0
# Processed by: cddbd v1.5.1PL0 Copyright (c) Steve Scherf et al.
# Submitted via: CDex 1.50beta10
#
DISCID=b211d30c
DTITLE=Otis Rush and Band - Natural Man
DYEAR=1986
DGENRE=Blues
TTITLE0=Warm Up Instrumental
TTITLE1=Lonely Man
TTITLE2=Love Is Just A Gamble
TTITLE3=Natural Ball
TTITLE4=Right Place Wrong Time
TTITLE5=Mean Old World
TTITLE6=You Don't Love Me
TTITLE7=Crosscut Saw
TTITLE8=Double Trouble
TTITLE9=All Your Love
TTITLE10=Natural Man
TTITLE11=Caldonia
EXTD=YEAR: 1986
EXTT0=
EXTT1=
EXTT2=
EXTT3=
EXTT4=
EXTT5=
EXTT6=
EXTT7=
EXTT8=
EXTT9=
EXTT10=
EXTT11=
PLAYORDER=
